<svg id="Layer_1" data-name="Layer 1" xmlns="http://www.w3.org/2000/svg" viewBox="0 0 256 314.4"><path d="M243.3,167c.45,47.58,41.74,63.41,42.2,63.61a172,172,0,0,1-21.76,44.72C250.64,294.51,237,313.6,215.61,314c-21.05.39-27.82-12.48-51.89-12.48s-31.58,12.09-51.5,12.87c-20.68.78-36.43-20.71-49.65-39.79-27-39-47.63-110.3-19.92-158.41,13.76-23.89,38.36-39,65.05-39.4,20.31-.39,39.48,13.66,51.89,13.66s35.7-16.9,60.19-14.42c10.25.43,39,4.14,57.5,31.19-1.49.92-34.33,20-34,59.82M203.74,50.2c11-13.29,18.37-31.79,16.35-50.2-15.82.64-35,10.55-46.31,23.83C163.61,35.59,154.7,54.42,157.1,72.46c17.64,1.37,35.66-9,46.64-22.26" transform="translate(-29.5)"/></svg>